<svg id="icons" enable-background="new 0 0 64 64" height="512" viewBox="0 0 64 64" width="512" xmlns="http://www.w3.org/2000/svg"><g><g><path d="m32 61c-5.28 0-10.24-1.41-14.5-3.88-8.67-5.011-14.5-14.38-14.5-25.12s5.84-20.12 14.52-25.13c4.26-2.46 9.2-3.87 14.48-3.87 5.29 0 10.25 1.42 14.52 3.89 8.66 5.02 14.48 14.38 14.48 25.11v.02c-.01 10.73-5.84 20.089-14.5 25.1-4.26 2.47-9.22 3.88-14.5 3.88zm-26-29c0 14.32 11.68 26 26 26s26-11.68 26-26c0-14.37-11.68-26-26-26s-26 11.63-26 26z" fill="#965353"/></g><g><path d="m32 10c12.12 0 22 9.84 22 22 0 12.12-9.88 22-22 22s-22-9.88-22-22c0-12.16 9.88-22 22-22zm18 22c0-9.95-8.08-18-18-18s-18 8.05-18 18c0 9.92 8.08 18 18 18s18-8.08 18-18z" fill="#f7c292"/></g><g><path d="m32 18c7.71 0 14 6.26 14 14 0 7.71-6.29 14-14 14s-14-6.29-14-14c0-7.74 6.29-14 14-14zm10 14c0-5.53-4.49-10-10-10s-10 4.47-10 10c0 5.51 4.49 10 10 10s10-4.49 10-10z" fill="#f7c292"/></g><g><g><path d="m32 30c1.1 0 2 .9 2 2s-.9 2-2 2-2-.9-2-2 .9-2 2-2z" fill="#ffd2a6"/></g><g><path d="m32 14c9.92 0 18 8.05 18 18 0 9.92-8.08 18-18 18s-18-8.08-18-18c0-9.95 8.08-18 18-18zm14 18c0-7.74-6.29-14-14-14s-14 6.26-14 14c0 7.71 6.29 14 14 14s14-6.29 14-14z" fill="#ffd2a6"/></g><g><path d="m32 6c14.32 0 26 11.63 26 26 0 14.32-11.68 26-26 26s-26-11.68-26-26c0-14.37 11.68-26 26-26zm22 26c0-12.16-9.88-22-22-22s-22 9.84-22 22c0 12.12 9.88 22 22 22s22-9.88 22-22z" fill="#ffd2a6"/></g><g><path d="m32 22c5.51 0 10 4.47 10 10 0 5.51-4.49 10-10 10s-10-4.49-10-10c0-5.53 4.49-10 10-10zm6 10c0-3.32-2.69-6-6-6s-6 2.68-6 6c0 3.311 2.69 6 6 6s6-2.689 6-6z" fill="#ffd2a6"/></g></g><g><path d="m32 26c3.31 0 6 2.68 6 6 0 3.311-2.69 6-6 6s-6-2.689-6-6c0-3.32 2.69-6 6-6zm2 6c0-1.1-.9-2-2-2s-2 .9-2 2 .9 2 2 2 2-.9 2-2z" fill="#f7c292"/></g></g><g><g><g><path d="m32 62c-16.542 0-30-13.458-30-30s13.458-30 30-30 30 13.458 30 30-13.458 30-30 30zm0-58c-15.439 0-28 12.561-28 28s12.561 28 28 28 28-12.561 28-28-12.561-28-28-28z"/></g><g><path d="m32 35c-1.654 0-3-1.346-3-3s1.346-3 3-3 3 1.346 3 3-1.346 3-3 3zm0-4c-.552 0-1 .449-1 1s.448 1 1 1 1-.449 1-1-.448-1-1-1z"/></g><g><path d="m32.001 39c-3.86 0-7.001-3.141-7.001-7 0-.451.043-.9.128-1.333.106-.542.622-.898 1.174-.79.542.106.896.631.789 1.173-.061.308-.091.628-.091.95 0 2.757 2.243 5 5 5 1.538-.001 2.97-.697 3.928-1.912 0 0 0 0 0-.001.701-.889 1.072-1.956 1.072-3.087 0-2.202-1.475-4.174-3.586-4.797-1.069-.315-2.234-.26-3.267.152-.512.202-1.095-.044-1.3-.558-.205-.513.045-1.095.558-1.299 1.448-.579 3.077-.653 4.574-.213.002 0 .003.001.005.001 2.954.873 5.016 3.633 5.016 6.714 0 1.584-.52 3.08-1.501 4.326-.001 0-.001 0-.001 0-1.339 1.698-3.343 2.673-5.497 2.674z"/></g><g><path d="m32 43c-1.596 0-3.136-.336-4.578-1-.502-.23-.722-.824-.49-1.326.229-.502.822-.724 1.326-.49 1.178.542 2.437.816 3.742.816 3.617 0 6.871-2.158 8.29-5.498 0-.001 0-.002.001-.003.471-1.108.709-2.286.709-3.499-.001-2.066-.721-4.085-2.025-5.684-.012-.014-.022-.027-.032-.041-.761-.921-1.68-1.67-2.731-2.229-.488-.259-.674-.864-.414-1.352.259-.488.864-.673 1.352-.415 1.304.692 2.44 1.625 3.377 2.771.013.016.024.031.036.047 1.571 1.948 2.436 4.397 2.437 6.903 0 1.485-.293 2.926-.87 4.284 0 .001 0 .002-.001.003-1.733 4.078-5.709 6.713-10.129 6.713zm-8.565-4.848c-.339 0-.669-.172-.856-.482-.76-1.256-1.251-2.626-1.462-4.072-.003-.016-.006-.03-.008-.046-.073-.516-.109-1.038-.108-1.554 0-5.604 4.197-10.303 9.764-10.929.537-.062 1.044.333 1.105.882.062.549-.334 1.044-.883 1.105-4.553.512-7.987 4.358-7.987 8.944-.001.409.027.821.083 1.229.003.014.005.027.007.041.169 1.195.573 2.327 1.199 3.364.286.473.135 1.088-.338 1.373-.162.098-.341.145-.516.145z"/></g><g><path d="m33.984 46.859c-.49 0-.918-.359-.989-.858-.078-.547.302-1.054.849-1.132 5.021-.717 9.193-4.33 10.631-9.207 0-.001 0-.002.001-.003.347-1.184.524-2.416.524-3.659-.001-1.877-.393-3.687-1.164-5.378 0-.001-.001-.002-.001-.003-.513-1.125-1.185-2.172-1.997-3.111-.361-.417-.316-1.049.102-1.411.417-.36 1.049-.315 1.41.102.938 1.084 1.715 2.293 2.307 3.594 0 .001.001.002.001.002.889 1.953 1.341 4.04 1.342 6.205 0 1.435-.204 2.856-.606 4.224 0 .001 0 .002-.001.003-1.657 5.626-6.473 9.796-12.266 10.623-.048.006-.096.009-.143.009zm-5.936-.428c-.094 0-.188-.013-.283-.041-1.359-.401-2.655-.995-3.853-1.766-.01-.006-.02-.012-.029-.018-4.311-2.786-6.884-7.499-6.883-12.606 0-.721.052-1.446.154-2.153.078-.545.591-.921 1.132-.847.547.079.926.586.847 1.133-.088.613-.133 1.241-.133 1.867-.001 4.416 2.221 8.492 5.942 10.91.01.005.019.011.027.017 1.044.675 2.175 1.194 3.361 1.545.529.156.832.712.676 1.242-.127.435-.526.717-.958.717zm-7.817-21.014c-.187 0-.374-.052-.542-.16-.464-.3-.597-.919-.297-1.383.776-1.2 1.719-2.283 2.802-3.22.01-.008.019-.017.028-.024 2.721-2.341 6.191-3.63 9.778-3.63 2.181 0 4.284.459 6.254 1.365.502.231.722.825.49 1.327-.23.5-.823.721-1.326.491-1.705-.786-3.528-1.183-5.418-1.183-3.118 0-6.136 1.125-8.496 3.166-.009.008-.018.015-.026.022-.93.809-1.738 1.741-2.405 2.772-.192.296-.513.457-.842.457z"/></g><g><path d="m32.001 51c-.61 0-1.222-.029-1.818-.087-.001 0-.002 0-.002 0-5.7-.546-10.804-3.61-14.001-8.409-.307-.46-.182-1.081.277-1.387.46-.306 1.081-.183 1.387.277 2.862 4.296 7.429 7.039 12.527 7.527.001.001.002.001.003.001 1.231.116 2.521.098 3.77-.059.545-.062 1.048.319 1.117.867s-.319 1.048-.867 1.117c-.789.101-1.593.152-2.393.153zm7.983-1.872c-.368 0-.722-.203-.896-.555-.246-.494-.044-1.095.45-1.341 4.616-2.297 7.914-6.484 9.046-11.487v-.001c.276-1.222.416-2.481.416-3.744.001-1.621-.228-3.224-.678-4.765-.004-.013-.007-.025-.01-.038-.352-1.192-.837-2.349-1.443-3.438-.269-.482-.095-1.091.388-1.36.484-.268 1.092-.094 1.36.388.685 1.231 1.232 2.54 1.626 3.888.004.013.008.026.011.04.496 1.711.747 3.489.746 5.285 0 1.41-.156 2.817-.465 4.183v.003c-1.266 5.592-4.949 10.271-10.106 12.837-.143.072-.295.105-.445.105zm-25.414-11.628c-.444 0-.851-.299-.967-.75-.349-1.344-.548-2.731-.593-4.125-.001-.015-.002-.029-.002-.043-.007-.195-.01-.391-.009-.587 0-5.512 2.398-10.75 6.579-14.367.417-.361 1.049-.316 1.41.102s.316 1.049-.102 1.411c-3.74 3.236-5.886 7.923-5.886 12.859-.001.162.001.319.006.475.001.015.002.03.003.045.037 1.26.216 2.515.53 3.73.139.534-.183 1.08-.718 1.218-.084.022-.168.032-.251.032zm29.449-17.894c-.238 0-.478-.084-.668-.256-3.125-2.805-7.156-4.35-11.351-4.35-.895 0-1.792.071-2.665.208-.009.001-.017.002-.024.003-1.235.197-2.448.532-3.607.996-.513.204-1.095-.044-1.3-.558-.205-.513.045-1.095.558-1.3 1.305-.521 2.672-.898 4.063-1.118.009-.001.018-.002.027-.004.966-.149 1.958-.227 2.947-.227 4.69 0 9.195 1.727 12.688 4.862.411.369.445 1.001.076 1.412-.198.221-.471.332-.744.332z"/></g><g><path d="m32.014 55c-.005 0-.01 0-.015 0-4.006 0-7.956-1.054-11.423-3.048-.479-.275-.644-.887-.368-1.366s.888-.642 1.366-.368c3.163 1.82 6.769 2.782 10.426 2.782h.013c1.448 0 2.896-.15 4.307-.447.001 0 .003-.001.004-.001 1.239-.261 2.463-.639 3.638-1.122.513-.207 1.096.034 1.306.544.21.511-.033 1.096-.544 1.306-1.289.53-2.632.944-3.991 1.23-.001 0-.002 0-.002 0-1.545.325-3.132.49-4.717.49zm13.494-4.654c-.298 0-.592-.132-.789-.385-.34-.436-.263-1.063.173-1.403 4.078-3.184 6.835-7.715 7.764-12.76 0-.001 0-.002 0-.002.228-1.244.344-2.522.344-3.796 0-1.354-.13-2.708-.387-4.028 0-.001 0-.002 0-.003-.241-1.244-.601-2.475-1.067-3.656-.202-.514.05-1.095.563-1.297.516-.201 1.095.049 1.298.563.511 1.296.904 2.645 1.169 4.01 0 .001.001.001.001.002.28 1.445.423 2.928.423 4.409 0 1.396-.127 2.795-.378 4.157v.003c-1.018 5.527-4.035 10.489-8.5 13.974-.183.142-.399.212-.614.212zm-29.167-1.916c-.259 0-.517-.1-.712-.298-.968-.982-1.852-2.056-2.628-3.19-.008-.011-.016-.022-.023-.034-2.603-3.821-3.978-8.285-3.978-12.908 0-1.004.065-2.015.195-3.004.071-.547.574-.933 1.121-.862.548.072.934.574.861 1.122-.117.903-.177 1.826-.177 2.744 0 4.207 1.248 8.27 3.608 11.749.008.011.016.021.022.033.714 1.048 1.529 2.039 2.422 2.945.388.394.384 1.026-.01 1.414-.194.193-.447.289-.701.289zm-4.575-24.073c-.132 0-.266-.026-.394-.082-.508-.217-.743-.805-.525-1.313.547-1.275 1.215-2.511 1.985-3.672.007-.01.013-.019.02-.028 3.133-4.697 7.847-8.071 13.277-9.504.528-.141 1.081.177 1.222.712.141.534-.178 1.081-.712 1.222-4.967 1.311-9.278 4.402-12.14 8.705-.006.009-.013.018-.019.026-.696 1.053-1.301 2.172-1.796 3.327-.162.38-.531.607-.918.607zm37.781-4.622c-.303 0-.602-.136-.798-.396-3.123-4.121-7.616-6.939-12.652-7.938-.01-.002-.02-.004-.029-.006-1.233-.242-2.499-.374-3.763-.392-.552-.008-.993-.462-.985-1.014s.468-1.018 1.015-.986c1.395.02 2.791.167 4.151.436.011.002.021.004.031.007 5.505 1.099 10.414 4.183 13.826 8.686.334.44.247 1.067-.192 1.401-.181.136-.394.202-.604.202z"/></g><g><path d="m32 59c-14.888 0-27-12.112-27-27s12.112-27 27-27 27 12.112 27 27-12.112 27-27 27zm0-52c-13.785 0-25 11.215-25 25s11.215 25 25 25 25-11.215 25-25-11.215-25-25-25z"/></g></g><g><path d="m1 35c-.553 0-1-.447-1-1s.447-1 1-1c.552 0 1-.449 1-1 0-.552.447-1 1-1s1 .448 1 1c0 1.654-1.346 3-3 3z"/></g><g><path d="m60.982 33.018c-.553 0-1-.448-1-1s.447-1 1-1c.562 0 1.018-.457 1.018-1.018 0-.552.447-1 1-1s1 .448 1 1c0 1.664-1.354 3.018-3.018 3.018z"/></g><g><path d="m18.231 60.848c-.17 0-.342-.043-.499-.134-.479-.276-.643-.888-.366-1.366.088-.152.135-.325.135-.499 0-.356-.192-.688-.501-.867-.479-.276-.643-.888-.366-1.366.275-.479.889-.643 1.366-.366.926.535 1.501 1.531 1.501 2.6 0 .524-.14 1.043-.402 1.499-.186.32-.522.499-.868.499z"/></g><g><path d="m46.507 7.91c-.17 0-.342-.043-.499-.134-.479-.276-.643-.888-.366-1.366.091-.157.137-.328.137-.507 0-.363-.195-.702-.509-.883-.479-.276-.643-.888-.366-1.366.276-.479.888-.643 1.366-.366.931.538 1.509 1.54 1.509 2.615 0 .528-.14 1.049-.404 1.507-.187.32-.522.5-.868.5z"/></g><g><path d="m49.235 58.848c-.346 0-.682-.179-.867-.5-.268-.462-.9-.635-1.368-.366-.479.276-1.09.11-1.365-.367-.276-.479-.111-1.09.367-1.365.457-.264.975-.402 1.499-.402 1.068 0 2.064.575 2.6 1.501.276.479.112 1.09-.366 1.366-.158.09-.33.133-.5.133z"/></g><g><path d="m17.526 7.891c-.345 0-.681-.178-.866-.498-.271-.468-.92-.647-1.391-.374-.478.275-1.09.112-1.366-.367-.276-.478-.112-1.09.366-1.366.458-.264.979-.404 1.506-.404 1.074 0 2.076.577 2.615 1.506.277.478.114 1.09-.363 1.367-.158.092-.331.136-.501.136z"/></g></g></svg>